<?xml version="1.0" encoding="utf-8"?>
<!-- Generator: Adobe Illustrator 22.1.0, SVG Export Plug-In . SVG Version: 6.00 Build 0)  -->
<svg version="1.1" id="Layer_1" xmlns="http://www.w3.org/2000/svg" xmlns:xlink="http://www.w3.org/1999/xlink" x="0px" y="0px"
	 viewBox="0 0 50 50" style="enable-background:new 0 0 50 50;" xml:space="preserve">
<g>
	<path d="M38.7,26.2L11.6,3.9c-0.1-0.1-0.1-0.3,0-0.4l1.6-2c0.1-0.1,0.3-0.1,0.4,0l27.8,22.8c0.1,0.1,0.1,0.3,0,0.5L39,26.2
		C38.9,26.3,38.8,26.3,38.7,26.2z"/>
</g>
<g>
	<path d="M41.3,24.8l-27.5,24c-0.2,0.1-0.4,0.1-0.6,0L11.7,47c-0.1-0.2-0.1-0.4,0-0.6l26.8-23.7c0.1-0.1,0.3-0.1,0.5,0l2.3,1.4
		C41.5,24.3,41.5,24.6,41.3,24.8z"/>
</g>
</svg>
